<svg width="334" height="182" viewBox="0 0 334 182" fill="none" xmlns="http://www.w3.org/2000/svg">
<g clip-path="url(#clip0_310_703)">
<path d="M136.858 233.901C124.258 253.701 105.958 263.301 81.6578 263.301C57.3578 263.301 39.0578 253.701 26.7578 233.901C14.1578 214.401 8.15781 187.101 8.15781 151.701C8.15781 116.601 14.1578 89.301 26.7578 69.501C39.0578 50.001 57.3578 40.101 81.6578 40.101C105.958 40.101 124.258 50.001 136.858 69.501C148.858 89.001 155.158 116.301 155.158 151.701C155.158 187.101 148.858 214.701 136.858 233.901ZM81.6578 251.601C101.158 251.601 116.158 243.201 126.358 225.801C136.558 208.401 141.658 183.801 141.658 151.701C141.658 119.901 136.558 95.301 126.358 77.901C116.158 60.501 101.158 51.801 81.6578 51.801C61.8578 51.801 46.8578 60.501 36.6578 77.901C26.4578 95.301 21.3578 119.901 21.3578 151.701C21.3578 183.801 26.4578 208.401 36.6578 225.801C46.8578 243.201 61.8578 251.601 81.6578 251.601ZM192.438 246.801H315.138V258.501H178.638L178.938 252.201C179.538 217.701 197.838 190.401 234.138 170.301L257.838 157.101C271.938 149.301 282.138 141.201 288.738 132.201C295.338 123.201 298.638 112.701 298.638 100.401C298.638 87.201 293.838 75.801 284.838 66.201C275.238 56.601 262.038 51.801 245.238 51.801C228.438 51.801 215.238 56.601 205.638 65.901C196.038 75.501 190.938 87.801 190.638 103.401H177.738C177.738 85.401 184.038 70.401 196.038 58.101C207.738 46.101 224.238 40.101 245.238 40.101C266.238 40.101 282.438 46.101 294.438 57.501C306.138 69.501 312.138 83.601 312.138 100.401C312.138 127.701 296.538 149.601 265.938 166.401L244.038 178.701C226.338 188.601 213.438 198.801 205.338 209.601C197.238 220.401 193.038 232.701 192.438 246.801Z" fill="#4B4B4B"/>
</g>
<defs>
<clipPath id="clip0_310_703">
<rect width="334" height="182" fill="white"/>
</clipPath>
</defs>
</svg>
