<svg width="49" height="49" viewBox="0 0 49 49" fill="none" xmlns="http://www.w3.org/2000/svg">
<path d="M24.5 44.5455C27.1324 44.5455 29.739 44.027 32.1711 43.0196C34.6031 42.0122 36.8129 40.5357 38.6743 38.6743C40.5357 36.8129 42.0122 34.6031 43.0196 32.1711C44.027 29.739 44.5455 27.1324 44.5455 24.5C44.5455 21.8676 44.027 19.261 43.0196 16.8289C42.0122 14.3969 40.5357 12.1871 38.6743 10.3257C36.8129 8.46433 34.6031 6.98779 32.1711 5.98041C29.739 4.97304 27.1324 4.45455 24.5 4.45455C19.1836 4.45455 14.085 6.56647 10.3257 10.3257C6.56647 14.085 4.45455 19.1836 4.45455 24.5C4.45455 29.8164 6.56647 34.915 10.3257 38.6743C14.085 42.4335 19.1836 44.5455 24.5 44.5455ZM49 24.5C49 38.0307 38.0307 49 24.5 49C10.9693 49 0 38.0307 0 24.5C0 10.9693 10.9693 0 24.5 0C38.0307 0 49 10.9693 49 24.5ZM31.1818 34.3312L22.2727 25.4221V10.0227H26.7273V23.5779L34.3312 31.1818L31.1818 34.3312Z" fill="black"/>
</svg>
