<svg width="63" height="50" viewBox="0 0 63 50" fill="none" xmlns="http://www.w3.org/2000/svg">
<path d="M53.2 0H9.8C7.33349 0 4.968 0.987721 3.22391 2.74587C1.47982 4.50403 0.5 6.8886 0.5 9.375V40.625C0.5 43.1114 1.47982 45.496 3.22391 47.2541C4.968 49.0123 7.33349 50 9.8 50H53.2C55.6665 50 58.032 49.0123 59.7761 47.2541C61.5202 45.496 62.5 43.1114 62.5 40.625V9.375C62.5 6.8886 61.5202 4.50403 59.7761 2.74587C58.032 0.987721 55.6665 0 53.2 0ZM53.2 6.25L33.05 20.2188C32.5787 20.493 32.0442 20.6374 31.5 20.6374C30.9558 20.6374 30.4213 20.493 29.95 20.2188L9.8 6.25H53.2Z" fill="black"/>
</svg>
