<svg width="40" height="41" viewBox="0 0 40 41" fill="none" xmlns="http://www.w3.org/2000/svg">
<rect x="0.5" y="1" width="39" height="39" rx="19.5" stroke="black"/>
<path fill-rule="evenodd" clip-rule="evenodd" d="M25.25 13.5H14.75C13.7849 13.5 13 14.2849 13 15.25V25.75C13 26.7151 13.7849 27.5 14.75 27.5H20V22.6875H18.25V20.5H20V18.75C20 18.0538 20.2766 17.3861 20.7688 16.8938C21.2611 16.4016 21.9288 16.125 22.625 16.125H24.375V18.3125H23.5C23.017 18.3125 22.625 18.267 22.625 18.75V20.5H24.8125L23.9375 22.6875H22.625V27.5H25.25C26.2151 27.5 27 26.7151 27 25.75V15.25C27 14.2849 26.2151 13.5 25.25 13.5Z" fill="black"/>
</svg>
