<svg width="132" height="132" viewBox="0 0 132 132" fill="none" xmlns="http://www.w3.org/2000/svg">
<circle cx="66" cy="66" r="66" fill="#FFC350"/>
<path fill-rule="evenodd" clip-rule="evenodd" d="M53.8864 52.8637L77.1364 76.1137L53.25 100L46.2102 92.9602C48.4787 91.8439 50.0398 89.5093 50.0398 86.8103C50.0398 83.0271 46.973 79.9601 43.1897 79.9601C40.4906 79.9601 38.1561 81.5212 37.0398 83.7898L30 76.75L53.8864 52.8637ZM58.5638 48.1861L68.75 38L75.7898 45.0398C73.5213 46.1561 71.9602 48.4905 71.9602 51.1897C71.9602 54.9729 75.027 58.0399 78.8103 58.0399C81.5094 58.0399 83.8439 56.4788 84.9602 54.2102L92 61.25L81.8139 71.4361L58.5638 48.1861Z" fill="black"/>
</svg>
