<svg width="59" height="70" viewBox="0 0 59 70" fill="none" xmlns="http://www.w3.org/2000/svg">
<path d="M29.5 0C37.1913 0 44.5675 3.04276 50.0061 8.45891C55.4447 13.8751 58.5 21.2209 58.5 28.8805C58.5 38.7448 53.0996 46.8186 47.4091 52.6107C44.5661 55.4733 41.4639 58.0686 38.142 60.3635L36.7693 61.2941L36.1249 61.7209L34.9101 62.4911L33.8274 63.1489L32.487 63.9255C31.5772 64.4427 30.5476 64.7147 29.5 64.7147C28.4524 64.7147 27.4228 64.4427 26.513 63.9255L25.1726 63.1489L23.497 62.122L22.8783 61.7209L21.5572 60.8449C17.9736 58.4302 14.6356 55.6724 11.5909 52.6107C5.90044 46.8154 0.5 38.7448 0.5 28.8805C0.5 21.2209 3.55535 13.8751 8.9939 8.45891C14.4325 3.04276 21.8087 0 29.5 0ZM29.5 19.2537C28.2306 19.2537 26.9735 19.5027 25.8007 19.9865C24.6279 20.4703 23.5623 21.1794 22.6646 22.0733C21.767 22.9673 21.055 24.0285 20.5692 25.1965C20.0834 26.3645 19.8333 27.6163 19.8333 28.8805C19.8333 30.1448 20.0834 31.3966 20.5692 32.5646C21.055 33.7326 21.767 34.7938 22.6646 35.6877C23.5623 36.5817 24.6279 37.2908 25.8007 37.7746C26.9735 38.2584 28.2306 38.5074 29.5 38.5074C32.0638 38.5074 34.5225 37.4931 36.3354 35.6877C38.1482 33.8824 39.1667 31.4337 39.1667 28.8805C39.1667 26.3273 38.1482 23.8787 36.3354 22.0733C34.5225 20.2679 32.0638 19.2537 29.5 19.2537Z" fill="black"/>
</svg>
