<svg width="59" height="80" viewBox="0 0 59 80" fill="none" xmlns="http://www.w3.org/2000/svg">
<path fill-rule="evenodd" clip-rule="evenodd" d="M0 8C0 5.87827 0.847644 3.84344 2.35646 2.34315C3.86527 0.842855 5.91167 0 8.04545 0H50.9545C53.0883 0 55.1347 0.842855 56.6435 2.34315C58.1524 3.84344 59 5.87827 59 8V72C59 74.1217 58.1524 76.1566 56.6435 77.6569C55.1347 79.1572 53.0883 80 50.9545 80H8.04545C5.91167 80 3.86527 79.1572 2.35646 77.6569C0.847644 76.1566 0 74.1217 0 72V8ZM21.4545 64H37.5455V58.6667H21.4545V64Z" fill="white"/>
</svg>
