<svg width="115" height="75" viewBox="0 0 115 75" fill="none" xmlns="http://www.w3.org/2000/svg">
<path fill-rule="evenodd" clip-rule="evenodd" d="M15 9V15H9C6.61305 15 4.32387 15.9482 2.63604 17.636C0.948212 19.3239 0 21.6131 0 24V66C0 68.387 0.948212 70.6761 2.63604 72.364C4.32387 74.0518 6.61305 75 9 75H91C92.1819 75 93.3522 74.7672 94.4442 74.3149C95.5361 73.8626 96.5282 73.1997 97.364 72.364C98.1997 71.5282 98.8626 70.5361 99.3149 69.4442C99.7672 68.3522 100 67.1819 100 66V60H106C110.96 60 115 55.96 115 51V9C115 4.04 110.96 0 106 0H24C19.04 0 15 4.04 15 9ZM25 10V15H91C92.1819 15 93.3522 15.2328 94.4442 15.6851C95.5361 16.1374 96.5282 16.8003 97.364 17.636C98.1997 18.4718 98.8626 19.4639 99.3149 20.5558C99.7672 21.6478 100 22.8181 100 24V50H105V10H25ZM40 45C40 42.3478 41.0536 39.8043 42.9289 37.9289C44.8043 36.0536 47.3478 35 50 35C52.6522 35 55.1957 36.0536 57.0711 37.9289C58.9464 39.8043 60 42.3478 60 45C60 47.6522 58.9464 50.1957 57.0711 52.0711C55.1957 53.9464 52.6522 55 50 55C47.3478 55 44.8043 53.9464 42.9289 52.0711C41.0536 50.1957 40 47.6522 40 45Z" fill="white"/>
</svg>
