<svg width="93" height="70" viewBox="0 0 93 70" fill="none" xmlns="http://www.w3.org/2000/svg">
<path d="M14.5337 0C10.6791 0 6.98241 1.53645 4.25681 4.27136C1.53122 7.00627 0 10.7156 0 14.5833V17.5H93V14.5833C93 10.7156 91.4688 7.00627 88.7432 4.27136C86.0176 1.53645 82.3209 0 78.4663 0H14.5337ZM0 55.4167V23.3333H93V55.4167C93 59.2844 91.4688 62.9937 88.7432 65.7286C86.0176 68.4635 82.3209 70 78.4663 70H14.5375C10.683 70 6.98628 68.4635 4.26069 65.7286C1.5351 62.9937 0.00387629 59.2844 0.00387629 55.4167M62.9637 44.7222C62.1928 44.7222 61.4535 45.0295 60.9084 45.5765C60.3633 46.1235 60.057 46.8653 60.057 47.6389C60.057 48.4124 60.3633 49.1543 60.9084 49.7013C61.4535 50.2483 62.1928 50.5556 62.9637 50.5556H76.5285C77.2994 50.5556 78.0388 50.2483 78.5839 49.7013C79.129 49.1543 79.4352 48.4124 79.4352 47.6389C79.4352 46.8653 79.129 46.1235 78.5839 45.5765C78.0388 45.0295 77.2994 44.7222 76.5285 44.7222H62.9637Z" fill="black"/>
</svg>
