<svg width="23" height="28" viewBox="0 0 23 28" fill="none" xmlns="http://www.w3.org/2000/svg">
<path fill-rule="evenodd" clip-rule="evenodd" d="M6.96869 26.448L7.4189 23.4923L6.416 23.4681H1.62695L4.95517 1.65649C4.96554 1.59044 4.99906 1.52913 5.04801 1.48551C5.0972 1.4419 5.1599 1.41797 5.22549 1.41797H13.3005C15.9815 1.41797 17.8316 1.99446 18.7973 3.13248C19.2502 3.66635 19.5386 4.22439 19.6782 4.83827C19.8246 5.48255 19.827 6.2522 19.6842 7.19108L19.6739 7.25937V7.86103L20.1267 8.12622C20.508 8.33533 20.8111 8.5746 21.0436 8.84851C21.4308 9.30512 21.6814 9.88534 21.7872 10.573C21.8967 11.2803 21.8605 12.1223 21.6814 13.0753C21.4747 14.1715 21.1407 15.1263 20.6896 15.9074C20.2748 16.6272 19.7462 17.2244 19.1185 17.687C18.5193 18.1267 17.8075 18.4604 17.0025 18.674C16.2224 18.8838 15.3331 18.9898 14.3577 18.9898H13.7293C13.2801 18.9898 12.8436 19.157 12.5009 19.4568C12.1573 19.7629 11.9301 20.1811 11.8605 20.6385L11.813 20.9047L11.0174 26.1145L10.9815 26.3057C10.9719 26.3662 10.9555 26.3964 10.9313 26.4168C10.9099 26.4355 10.879 26.448 10.8489 26.448H6.96869" fill="#28356A"/>
<path fill-rule="evenodd" clip-rule="evenodd" d="M20.5552 7.32812C20.5314 7.48739 20.5036 7.65014 20.4728 7.81738C19.4079 13.4686 15.7645 15.4209 11.1114 15.4209H8.74224C8.17315 15.4209 7.69353 15.8478 7.60503 16.4281L6.04847 26.6331C5.99083 27.0142 6.2749 27.3574 6.64674 27.3574H10.8488C11.3463 27.3574 11.769 26.9838 11.8474 26.4766L11.8886 26.256L12.6798 21.0666L12.7307 20.782C12.8081 20.2731 13.2318 19.8992 13.7293 19.8992H14.3577C18.4288 19.8992 21.616 18.1909 22.5475 13.247C22.9365 11.1818 22.7351 9.45737 21.7055 8.24457C21.3939 7.87894 21.0074 7.57537 20.5552 7.32812" fill="#298FC2"/>
<path fill-rule="evenodd" clip-rule="evenodd" d="M19.4399 6.8677C19.2771 6.8186 19.1093 6.77423 18.9371 6.73411C18.764 6.69498 18.5867 6.66033 18.4042 6.62993C17.7654 6.52325 17.0654 6.47266 16.3157 6.47266H9.98646C9.83045 6.47266 9.68239 6.50905 9.55 6.57484C9.25798 6.7199 9.04119 7.00553 8.98862 7.35521L7.6421 16.1698L7.60352 16.4267C7.69201 15.8465 8.17164 15.4196 8.74073 15.4196H11.1099C15.763 15.4196 19.4064 13.4663 20.4712 7.81605C20.5031 7.64881 20.5298 7.48606 20.5537 7.3268C20.2844 7.179 19.9926 7.05263 19.6784 6.94496C19.6007 6.91829 19.5207 6.89262 19.4399 6.8677" fill="#22284F"/>
<path fill-rule="evenodd" clip-rule="evenodd" d="M8.98947 7.35642C9.04204 7.00674 9.25883 6.72112 9.55085 6.57706C9.6842 6.51101 9.83129 6.47462 9.98731 6.47462H16.3165C17.0662 6.47462 17.7663 6.52546 18.405 6.63214C18.5876 6.6623 18.7648 6.69719 18.938 6.73632C19.1101 6.7762 19.278 6.82081 19.4407 6.86966C19.5215 6.89459 19.6016 6.92051 19.6799 6.94618C19.9941 7.05385 20.2862 7.18121 20.5555 7.32801C20.8724 5.23964 20.5529 3.81774 19.4605 2.53017C18.256 1.11251 16.0824 0.505859 13.3008 0.505859H5.22552C4.65739 0.505859 4.1727 0.932805 4.08492 1.51403L0.721498 23.5499C0.655185 23.9859 0.980483 24.3792 1.40585 24.3792H6.39119L8.98947 7.35642" fill="#28356A"/>
</svg>
