<svg width="81" height="65" viewBox="0 0 81 65" fill="none" xmlns="http://www.w3.org/2000/svg">
<path fill-rule="evenodd" clip-rule="evenodd" d="M44.55 0C45.542 0.000130455 46.4994 0.363202 47.2407 1.02035C47.982 1.6775 48.4556 2.58302 48.5717 3.56516L48.6 4.03755C48.6011 5.06664 48.9964 6.05646 49.705 6.80476C50.4137 7.55306 51.3822 8.00337 52.4127 8.06368C53.4431 8.12399 54.4578 7.78975 55.2494 7.12924C56.041 6.46874 56.5497 5.53183 56.6717 4.50994L56.7 4.03755C56.7 2.96672 57.1267 1.93976 57.8862 1.18257C58.6457 0.425384 59.6759 0 60.75 0H68.85C72.0724 0 75.1628 1.27615 77.4414 3.54771C79.7199 5.81928 81 8.90017 81 12.1126V52.4881C81 55.7006 79.7199 58.7815 77.4414 61.0531C75.1628 63.3246 72.0724 64.6008 68.85 64.6008H60.75C59.758 64.6007 58.8006 64.2376 58.0593 63.5804C57.318 62.9233 56.8444 62.0178 56.7284 61.0356L56.7 60.5632C56.6989 59.5342 56.3036 58.5443 55.595 57.796C54.8863 57.0477 53.9178 56.5974 52.8874 56.5371C51.8569 56.4768 50.8422 56.811 50.0506 57.4715C49.259 58.132 48.7503 59.069 48.6284 60.0908L48.6 60.5632C48.6 61.6341 48.1733 62.661 47.4138 63.4182C46.6543 64.1754 45.6241 64.6008 44.55 64.6008H12.15C8.92762 64.6008 5.83722 63.3246 3.55865 61.0531C1.28009 58.7815 0 55.7006 0 52.4881V12.1126C0 8.90017 1.28009 5.81928 3.55865 3.54771C5.83722 1.27615 8.92762 0 12.15 0H44.55ZM52.65 36.3379C51.5759 36.3379 50.5457 36.7633 49.7862 37.5205C49.0267 38.2777 48.6 39.3047 48.6 40.3755V44.413C48.6 45.4839 49.0267 46.5108 49.7862 47.268C50.5457 48.0252 51.5759 48.4506 52.65 48.4506C53.7241 48.4506 54.7543 48.0252 55.5138 47.268C56.2733 46.5108 56.7 45.4839 56.7 44.413V40.3755C56.7 39.3047 56.2733 38.2777 55.5138 37.5205C54.7543 36.7633 53.7241 36.3379 52.65 36.3379ZM52.65 16.1502C51.658 16.1503 50.7006 16.5134 49.9593 17.1705C49.218 17.8277 48.7444 18.7332 48.6284 19.7154L48.6 20.1877V24.2253C48.6011 25.2544 48.9964 26.2442 49.705 26.9925C50.4137 27.7408 51.3822 28.1911 52.4127 28.2514C53.4431 28.3117 54.4578 27.9775 55.2494 27.317C56.041 26.6565 56.5497 25.7196 56.6717 24.6977L56.7 24.2253V20.1877C56.7 19.1169 56.2733 18.09 55.5138 17.3328C54.7543 16.5756 53.7241 16.1502 52.65 16.1502Z" fill="black"/>
</svg>
