<svg width="29" height="27" viewBox="0 0 29 27" fill="none" xmlns="http://www.w3.org/2000/svg">
<path d="M19.6201 7.33548L10.1519 11.5716M19.6202 19.3562L10.2643 15.1902M26.9842 5.55378C26.9842 7.70741 25.2383 9.45327 23.0847 9.45327C20.9311 9.45327 19.1852 7.70741 19.1852 5.55378C19.1852 3.40016 20.9311 1.6543 23.0847 1.6543C25.2383 1.6543 26.9842 3.40016 26.9842 5.55378ZM9.27749 13.3388C9.27749 15.4924 7.53163 17.2383 5.378 17.2383C3.22438 17.2383 1.47852 15.4924 1.47852 13.3388C1.47852 11.1852 3.22438 9.4393 5.378 9.4393C7.53163 9.4393 9.27749 11.1852 9.27749 13.3388ZM26.9842 21.1376C26.9842 23.2912 25.2383 25.0371 23.0847 25.0371C20.9311 25.0371 19.1852 23.2912 19.1852 21.1376C19.1852 18.984 20.9311 17.2381 23.0847 17.2381C25.2383 17.2381 26.9842 18.984 26.9842 21.1376Z" stroke="black" stroke-width="2.10404" stroke-miterlimit="10" stroke-linecap="round" stroke-linejoin="round"/>
</svg>
