<svg width="98" height="70" viewBox="0 0 98 70" fill="none" xmlns="http://www.w3.org/2000/svg">
<path d="M97.418 33.0575L77.4409 3.11938C76.8049 2.16048 75.9416 1.37383 74.9278 0.829558C73.914 0.285285 72.7813 0.000296487 71.6306 0H7.0003C5.14371 0 3.36315 0.737498 2.05034 2.05025C0.73753 3.36301 0 5.14348 0 7V63C0 64.8565 0.73753 66.637 2.05034 67.9497C3.36315 69.2625 5.14371 70 7.0003 70H71.6306C72.7804 69.9979 73.912 69.7126 74.9254 69.1693C75.9388 68.626 76.8027 67.8414 77.4409 66.885L97.4049 36.9425C97.7906 36.3686 97.9976 35.6934 98 35.002C98.0023 34.3106 97.7998 33.6339 97.418 33.0575Z" fill="black"/>
</svg>
