<svg width="71" height="50" viewBox="0 0 71 50" fill="none" xmlns="http://www.w3.org/2000/svg">
<rect x="1.21801" y="1.35668" width="68.8393" height="47.4226" rx="5.35417" fill="white"/>
<rect x="1.21801" y="1.35668" width="68.8393" height="47.4226" rx="5.35417" stroke="#F5F5F5" stroke-width="1.52976"/>
<path fill-rule="evenodd" clip-rule="evenodd" d="M37.713 17.1992L34.1902 17.9774V15.0373L37.713 14.2734V17.1992ZM45.0399 18.8271C43.6644 18.8271 42.7802 19.4901 42.289 19.9513L42.1065 19.0577H39.0188V35.8627L42.5276 35.0988L42.5416 31.0201C43.0469 31.3948 43.7907 31.9281 45.0258 31.9281C47.5381 31.9281 49.8258 29.8527 49.8258 25.2839C49.8118 21.1043 47.496 18.8271 45.0399 18.8271ZM44.1967 28.7577C43.3686 28.7577 42.8774 28.455 42.5406 28.0803L42.5265 22.7333C42.8914 22.3153 43.3967 22.0271 44.1967 22.0271C45.4739 22.0271 46.3581 23.4972 46.3581 25.3852C46.3581 27.3165 45.4879 28.7577 44.1967 28.7577ZM60.884 25.428C60.884 21.7385 59.1437 18.8271 55.8174 18.8271C52.4771 18.8271 50.4561 21.7385 50.4561 25.3992C50.4561 29.7374 52.842 31.9281 56.2665 31.9281C57.9367 31.9281 59.1998 31.5389 60.1542 30.9913V28.1088C59.1998 28.5988 58.1051 28.9015 56.7157 28.9015C55.3543 28.9015 54.1473 28.4114 53.9929 26.7108H60.856C60.856 26.6313 60.861 26.4509 60.8668 26.243L60.8668 26.2425L60.8669 26.2421L60.8669 26.2415C60.8748 25.9593 60.884 25.627 60.884 25.428ZM53.9518 24.0582C53.9518 22.4296 54.9202 21.7522 55.8044 21.7522C56.6606 21.7522 57.5728 22.4296 57.5728 24.0582H53.9518ZM34.1902 19.0719H37.713V31.6828H34.1902V19.0719ZM30.1914 19.0715L30.416 20.138C31.2441 18.5814 32.8861 18.8985 33.3353 19.0715V22.3863C32.9002 22.2278 31.4967 22.026 30.6686 23.1358V31.6824H27.1599V19.0715H30.1914ZM23.3978 15.9466L19.9733 16.6961L19.9592 28.2404C19.9592 30.3735 21.5171 31.9445 23.5943 31.9445C24.7452 31.9445 25.5873 31.7283 26.0504 31.4688V28.5431C25.6013 28.7305 23.3838 29.3934 23.3838 27.2604V22.144H26.0504V19.0741H23.3838L23.3978 15.9466ZM15.1032 21.9544C14.3594 21.9544 13.9102 22.1706 13.9102 22.7327C13.9102 23.3464 14.6832 23.6163 15.6421 23.9512C17.2054 24.4973 19.2629 25.2159 19.2716 27.8779C19.2716 30.4577 17.2646 31.9422 14.3453 31.9422C13.1383 31.9422 11.819 31.6972 10.5138 31.1207V27.6905C11.6927 28.3535 13.1804 28.8435 14.3453 28.8435C15.1313 28.8435 15.6927 28.6274 15.6927 27.9644C15.6927 27.2846 14.8548 26.9739 13.8432 26.5987C12.3027 26.0274 10.3594 25.3068 10.3594 22.9056C10.3594 20.3546 12.2541 18.8269 15.1032 18.8269C16.2681 18.8269 17.419 19.0142 18.5839 19.4898V22.8768C17.5172 22.2859 16.1699 21.9544 15.1032 21.9544Z" fill="#6461FC"/>
</svg>
