<svg width="70" height="70" viewBox="0 0 70 70" fill="none" xmlns="http://www.w3.org/2000/svg">
<path d="M12.6001 8.09731L27.4114 22.9045C29.6868 21.4768 32.3186 20.7195 35.0048 20.7195C37.691 20.7195 40.3228 21.4768 42.5981 22.9045L57.3999 8.10367C51.1114 2.86736 43.1866 0 35.0032 0C26.8197 0 18.895 2.86736 12.6065 8.10367M61.899 12.5961L47.0909 27.4064C48.518 29.6813 49.275 32.3123 49.275 34.9977C49.275 37.6832 48.518 40.3142 47.0909 42.589L61.8958 57.393C67.1325 51.1049 70 43.1807 70 34.9977C70 26.8148 67.1325 18.8906 61.8958 12.6025M57.3999 61.8918L42.595 47.0846C40.3196 48.5123 37.6878 49.2696 35.0016 49.2696C32.3154 49.2696 29.6836 48.5123 27.4082 47.0846L12.6001 61.895C18.8889 67.1321 26.8143 70 34.9984 70C43.1826 70 51.1079 67.1321 57.3967 61.895M8.1042 57.393L22.9091 42.5827C21.482 40.3078 20.725 37.6768 20.725 34.9914C20.725 32.306 21.482 29.6749 22.9091 27.4001L8.1042 12.5961C2.86754 18.8843 0 26.8085 0 34.9914C0 43.1743 2.86754 51.0985 8.1042 57.3867" fill="black"/>
</svg>
