<svg width="22" height="18" viewBox="0 0 22 18" fill="none" xmlns="http://www.w3.org/2000/svg">
<path d="M2.30919 0.245117C1.37725 0.245117 0.619141 1.00322 0.619141 1.93516V4.36366C0.619141 4.57129 0.708864 4.76927 0.864348 4.90689C1.01983 5.04451 1.22782 5.10884 1.43304 5.08325C1.48181 5.07697 1.5337 5.07382 1.58488 5.07382C2.65009 5.07382 3.51636 5.94009 3.51636 7.0053C3.51636 8.07051 2.65009 8.93678 1.58488 8.93678C1.53418 8.93678 1.48321 8.93457 1.43493 8.92829C1.22971 8.90173 1.02128 8.96515 0.864348 9.10277C0.708864 9.2399 0.619141 9.43882 0.619141 9.64694V12.0754C0.619141 13.0074 1.37725 13.7655 2.30919 13.7655H9.96815C9.85805 13.2995 9.79367 12.8162 9.79367 12.3169H2.30919C2.17591 12.3169 2.06775 12.2087 2.06775 12.0754V10.3514C3.70372 10.1163 4.96497 8.70549 4.96497 7.0053C4.96497 5.30511 3.70372 3.89432 2.06775 3.65916V1.93516C2.06775 1.80189 2.17591 1.69373 2.30919 1.69373H19.2096C19.3429 1.69373 19.4511 1.80189 19.4511 1.93516V3.65916C18.127 3.84941 17.049 4.81039 16.6859 6.07068C17.1818 6.11897 17.6589 6.22923 18.1138 6.38568C18.3735 5.62564 19.0865 5.07382 19.9339 5.07382C19.9851 5.07382 20.037 5.07651 20.0858 5.08231C20.2915 5.1079 20.4985 5.04451 20.6545 4.90689C20.81 4.76975 20.8997 4.57129 20.8997 4.36366V1.93516C20.8997 1.00322 20.1416 0.245117 19.2096 0.245117H2.30919ZM16.071 7.0053C13.1376 7.0053 10.7594 9.38344 10.7594 12.3169C10.7594 15.2503 13.1376 17.6284 16.071 17.6284C19.0044 17.6284 21.3826 15.2503 21.3826 12.3169C21.3826 9.38344 19.0044 7.0053 16.071 7.0053ZM16.071 8.45391C16.3375 8.45391 16.5539 8.67024 16.5539 8.93678V11.834H19.4511C19.7176 11.834 19.9339 12.0503 19.9339 12.3169C19.9339 12.5834 19.7176 12.7997 19.4511 12.7997H16.5539V15.697C16.5539 15.9635 16.3375 16.1798 16.071 16.1798C15.8044 16.1798 15.5881 15.9635 15.5881 15.697V12.7997H12.6909C12.4244 12.7997 12.208 12.5834 12.208 12.3169C12.208 12.0503 12.4244 11.834 12.6909 11.834H15.5881V8.93678C15.5881 8.67024 15.8044 8.45391 16.071 8.45391Z" fill="white"/>
</svg>
