<svg width="89" height="75" viewBox="0 0 89 75" fill="none" xmlns="http://www.w3.org/2000/svg">
<path d="M82.1538 0H6.84615C5.03044 0 3.28909 0.718342 2.00519 1.997C0.721289 3.27566 0 5.00989 0 6.81818V68.1818C0 69.9901 0.721289 71.7243 2.00519 73.003C3.28909 74.2817 5.03044 75 6.84615 75H82.1538C83.9696 75 85.7109 74.2817 86.9948 73.003C88.2787 71.7243 89 69.9901 89 68.1818V6.81818C89 5.00989 88.2787 3.27566 86.9948 1.997C85.7109 0.718342 83.9696 0 82.1538 0ZM29.4385 45C30.1647 45.5425 30.6449 46.3501 30.7733 47.2452C30.9017 48.1402 30.6678 49.0494 30.1231 49.7727C29.5784 50.496 28.7674 50.9742 27.8687 51.1021C26.97 51.23 26.0571 50.997 25.3308 50.4545L11.6385 40.2273C11.2133 39.9097 10.8683 39.498 10.6306 39.0246C10.393 38.5512 10.2692 38.0292 10.2692 37.5C10.2692 36.9708 10.393 36.4488 10.6306 35.9754C10.8683 35.502 11.2133 35.0903 11.6385 34.7727L25.3308 24.5455C26.0571 24.003 26.97 23.77 27.8687 23.8979C28.7674 24.0258 29.5784 24.504 30.1231 25.2273C30.6678 25.9506 30.9017 26.8598 30.7733 27.7548C30.6449 28.6499 30.1647 29.4575 29.4385 30L19.396 37.5L29.4385 45ZM54.6366 14.5739L40.9443 62.3011C40.8276 62.7392 40.6243 63.1497 40.3465 63.5087C40.0686 63.8676 39.7216 64.1677 39.3259 64.3915C38.9301 64.6153 38.4935 64.7582 38.0417 64.812C37.5898 64.8658 37.1317 64.8292 36.6941 64.7046C36.2566 64.5799 35.8484 64.3696 35.4934 64.086C35.1385 63.8023 34.8439 63.4511 34.6269 63.0527C34.4098 62.6543 34.2748 62.2168 34.2295 61.7658C34.1843 61.3148 34.2298 60.8594 34.3634 60.4261L48.0557 12.6989C48.3189 11.8455 48.9077 11.1289 49.6956 10.7032C50.4835 10.2775 51.4077 10.1766 52.2695 10.4221C53.1313 10.6677 53.862 11.2401 54.3046 12.0164C54.7473 12.7927 54.8664 13.711 54.6366 14.5739ZM77.3615 40.2273L63.6692 50.4545C62.9429 50.997 62.03 51.23 61.1313 51.1021C60.2326 50.9742 59.4216 50.496 58.8769 49.7727C58.3322 49.0494 58.0983 48.1402 58.2267 47.2452C58.3551 46.3501 58.8353 45.5425 59.5615 45L69.604 37.5L59.5615 30C59.2019 29.7314 58.8989 29.3949 58.6699 29.0096C58.4409 28.6244 58.2903 28.198 58.2267 27.7548C58.1631 27.3117 58.1878 26.8603 58.2994 26.4267C58.411 25.993 58.6072 25.5854 58.8769 25.2273C59.1466 24.8691 59.4845 24.5674 59.8713 24.3393C60.2582 24.1112 60.6863 23.9612 61.1313 23.8979C61.5763 23.8346 62.0295 23.8592 62.4649 23.9703C62.9004 24.0814 63.3096 24.2768 63.6692 24.5455L77.3615 34.7727C77.7867 35.0903 78.1317 35.502 78.3694 35.9754C78.607 36.4488 78.7308 36.9708 78.7308 37.5C78.7308 38.0292 78.607 38.5512 78.3694 39.0246C78.1317 39.498 77.7867 39.9097 77.3615 40.2273Z" fill="black"/>
</svg>
