<svg width="25" height="27" viewBox="0 0 25 27" fill="none" xmlns="http://www.w3.org/2000/svg">
<path d="M20.4589 14.8508H19.5324L16.8074 17.5506H19.4098L21.8214 20.2505H2.74648L5.17172 17.5506H7.96484L5.23985 14.8508H4.10897L0.0214844 18.9005V24.3002C0.0214844 25.0162 0.308581 25.7029 0.819616 26.2092C1.33065 26.7156 2.02376 27 2.74648 27H21.8214C22.5441 27 23.2373 26.7156 23.7483 26.2092C24.2593 25.7029 24.5464 25.0162 24.5464 24.3002V18.9005L20.4589 14.8508ZM19.0964 8.03377L12.3521 14.7158L7.51522 9.93715L14.2732 3.25509L19.0964 8.03377ZM13.3195 0.393285L4.64035 8.99221C4.51404 9.11709 4.41383 9.26543 4.34546 9.42874C4.27709 9.59204 4.24189 9.7671 4.24189 9.94389C4.24189 10.1207 4.27709 10.2957 4.34546 10.4591C4.41383 10.6224 4.51404 10.7707 4.64035 10.8956L11.3847 17.5506C11.9161 18.1041 12.7745 18.1041 13.3058 17.5506L21.9713 8.99221C22.0976 8.86732 22.1978 8.71898 22.2662 8.55568C22.3346 8.39238 22.3698 8.21732 22.3698 8.04052C22.3698 7.86373 22.3346 7.68867 22.2662 7.52536C22.1978 7.36206 22.0976 7.21372 21.9713 7.08884L15.2269 0.406785C15.104 0.279355 14.9565 0.177689 14.7932 0.107817C14.6298 0.0379454 14.454 0.00129262 14.2761 3.35773e-05C14.0982 -0.00122546 13.9218 0.0329349 13.7575 0.100488C13.5932 0.16804 13.4442 0.267609 13.3195 0.393285Z" fill="white"/>
</svg>
