<svg width="26" height="19" viewBox="0 0 26 19" fill="none" xmlns="http://www.w3.org/2000/svg">
<path d="M5.08855 14.0821H2.93359L0.513672 18.1402H24.126L21.7061 14.0821H20.754M15.118 7.01356L7.79262 4.79743L4.40387 16.434H20.0693L22.1896 9.15333L17.32 7.67991M17.8611 3.90377C17.3974 4.84903 15.5768 6.41711 15.4183 6.65878C15.2598 6.90046 13.9263 8.08803 14.819 8.84904C15.7117 9.61004 17.1151 7.77694 17.5677 7.46585C18.0202 7.15476 20.2358 6.54394 20.7113 6.14072C21.1867 5.7375 21.8417 5.31031 22.0113 4.88374M22.0113 4.88374L21.0839 1.88642M22.0113 4.88374L24.6572 4.79723L23.1764 0.756836L21.0839 1.88642M21.0839 1.88642C21.0839 1.88642 17.0922 1.817 16.5604 1.88642C16.0287 1.95583 13.7976 4.99985 14.1294 5.90914C14.5256 6.99322 15.8974 6.16596 15.8974 6.16596" stroke="white" stroke-width="0.965741" stroke-linecap="round" stroke-linejoin="round"/>
</svg>
