<svg width="40" height="41" viewBox="0 0 40 41" fill="none" xmlns="http://www.w3.org/2000/svg">
<rect x="0.5" y="1" width="39" height="39" rx="19.5" stroke="black"/>
<path d="M28.55 16.3214C28.325 15.5714 27.7625 15.0357 26.975 14.8214C25.625 14.5 19.8875 14.5 19.8875 14.5C19.8875 14.5 14.2625 14.5 12.8 14.8214C12.0125 15.0357 11.45 15.5714 11.225 16.3214C11 17.7143 11 20.5 11 20.5C11 20.5 11 23.2857 11.3375 24.6786C11.5625 25.4286 12.125 25.9643 12.9125 26.1786C14.2625 26.5 20 26.5 20 26.5C20 26.5 25.625 26.5 27.0875 26.1786C27.875 25.9643 28.4375 25.4286 28.6625 24.6786C29 23.2857 29 20.5 29 20.5C29 20.5 29 17.7143 28.55 16.3214ZM18.2 23.0714V17.9286L22.925 20.5L18.2 23.0714Z" fill="black"/>
</svg>
