<svg width="334" height="182" viewBox="0 0 334 182" fill="none" xmlns="http://www.w3.org/2000/svg">
<g clip-path="url(#clip0_310_712)">
<path d="M136.858 233.901C124.258 253.701 105.958 263.301 81.6578 263.301C57.3578 263.301 39.0578 253.701 26.7578 233.901C14.1578 214.401 8.15781 187.101 8.15781 151.701C8.15781 116.601 14.1578 89.301 26.7578 69.501C39.0578 50.001 57.3578 40.101 81.6578 40.101C105.958 40.101 124.258 50.001 136.858 69.501C148.858 89.001 155.158 116.301 155.158 151.701C155.158 187.101 148.858 214.701 136.858 233.901ZM81.6578 251.601C101.158 251.601 116.158 243.201 126.358 225.801C136.558 208.401 141.658 183.801 141.658 151.701C141.658 119.901 136.558 95.301 126.358 77.901C116.158 60.501 101.158 51.801 81.6578 51.801C61.8578 51.801 46.8578 60.501 36.6578 77.901C26.4578 95.301 21.3578 119.901 21.3578 151.701C21.3578 183.801 26.4578 208.401 36.6578 225.801C46.8578 243.201 61.8578 251.601 81.6578 251.601ZM278.774 143.901C292.274 148.401 303.074 155.601 311.174 165.201C318.974 174.801 323.174 186.801 323.174 200.901C323.174 220.101 316.574 235.401 303.374 246.201C290.174 257.601 272.774 263.301 251.174 263.301C228.974 263.301 211.274 257.901 198.374 246.501C185.474 235.101 179.174 219.801 179.174 200.601H191.774C191.774 216.801 197.174 229.101 207.974 238.101C218.474 247.101 232.874 251.601 251.174 251.601C268.574 251.601 282.974 247.101 293.774 237.801C304.574 228.801 309.974 216.501 309.974 200.901C309.974 185.001 304.274 172.701 293.474 163.701C282.674 154.701 267.974 150.201 249.374 150.201H235.874V139.101H248.774C264.974 139.101 277.874 135.201 287.474 127.401C297.074 119.601 301.874 108.801 301.874 95.301C301.874 82.101 297.074 71.601 287.474 63.801C277.874 56.001 265.574 51.801 249.974 51.801C234.674 51.801 222.374 56.001 212.774 64.101C203.174 72.201 198.074 83.301 197.774 97.401H185.174C185.174 80.001 191.174 66.201 203.174 55.701C214.574 45.501 230.174 40.101 249.974 40.101C269.474 40.101 285.074 45.201 297.074 55.101C309.074 65.001 315.074 78.201 315.074 95.001C315.074 119.001 302.774 135.501 278.774 143.901Z" fill="#959595"/>
</g>
<defs>
<clipPath id="clip0_310_712">
<rect width="334" height="182" fill="white"/>
</clipPath>
</defs>
</svg>
