<svg width="334" height="182" viewBox="0 0 334 182" fill="none" xmlns="http://www.w3.org/2000/svg">
<g clip-path="url(#clip0_310_721)">
<path d="M136.858 233.901C124.258 253.701 105.958 263.301 81.6578 263.301C57.3578 263.301 39.0578 253.701 26.7578 233.901C14.1578 214.401 8.15781 187.101 8.15781 151.701C8.15781 116.601 14.1578 89.301 26.7578 69.501C39.0578 50.001 57.3578 40.101 81.6578 40.101C105.958 40.101 124.258 50.001 136.858 69.501C148.858 89.001 155.158 116.301 155.158 151.701C155.158 187.101 148.858 214.701 136.858 233.901ZM81.6578 251.601C101.158 251.601 116.158 243.201 126.358 225.801C136.558 208.401 141.658 183.801 141.658 151.701C141.658 119.901 136.558 95.301 126.358 77.901C116.158 60.501 101.158 51.801 81.6578 51.801C61.8578 51.801 46.8578 60.501 36.6578 77.901C26.4578 95.301 21.3578 119.901 21.3578 151.701C21.3578 183.801 26.4578 208.401 36.6578 225.801C46.8578 243.201 61.8578 251.601 81.6578 251.601ZM300.081 186.801H333.081V198.501H300.081V258.501H287.181V198.501H173.781V186.201L285.681 44.901H300.081V186.801ZM287.181 186.801V61.101L187.881 186.801H287.181Z" fill="#4B4B4B"/>
</g>
<defs>
<clipPath id="clip0_310_721">
<rect width="334" height="182" fill="white"/>
</clipPath>
</defs>
</svg>
