<svg width="37" height="37" viewBox="0 0 37 37" fill="none" xmlns="http://www.w3.org/2000/svg">
<path d="M22.8312 0.03125H2.96909C2.31062 0.03125 1.67912 0.302167 1.21351 0.784404C0.747903 1.26664 0.486328 1.92069 0.486328 2.60268V33.4598C0.486328 34.1418 0.747903 34.7959 1.21351 35.2781C1.67912 35.7603 2.31062 36.0312 2.96909 36.0312H22.8312C23.4896 36.0312 24.1211 35.7603 24.5867 35.2781C25.0523 34.7959 25.3139 34.1418 25.3139 33.4598V25.7455H13.6822C13.353 25.7455 13.0372 25.6101 12.8044 25.369C12.5716 25.1278 12.4408 24.8008 12.4408 24.4598C12.4408 24.1188 12.5716 23.7918 12.8044 23.5507C13.0372 23.3096 13.353 23.1741 13.6822 23.1741H25.3139V2.60268C25.3139 1.92069 25.0523 1.26664 24.5867 0.784404C24.1211 0.302167 23.4896 0.03125 22.8312 0.03125Z" fill="black"/>
<path d="M29.2367 17.1055C28.9992 16.8949 28.6937 16.7848 28.3813 16.7973C28.0689 16.8098 27.7725 16.944 27.5514 17.173C27.3303 17.4019 27.2008 17.7089 27.1888 18.0325C27.1767 18.3561 27.283 18.6724 27.4863 18.9184L31.6822 23.1741L25.3139 23.1741V25.7455L31.6822 25.7455L27.4863 30.1941C27.3564 30.3094 27.2508 30.4512 27.1763 30.6107C27.1018 30.7702 27.0599 30.944 27.0533 31.121C27.0467 31.2981 27.0755 31.4747 27.138 31.6397C27.2004 31.8047 27.295 31.9545 27.416 32.0798C27.537 32.2051 27.6817 32.3032 27.841 32.3678C28.0003 32.4324 28.1707 32.4623 28.3417 32.4554C28.5127 32.4486 28.6804 32.4052 28.8344 32.328C28.9884 32.2509 29.1254 32.1416 29.2367 32.007L36.4863 24.5498L29.2367 17.1055Z" fill="black"/>
</svg>
