<svg width="234" height="132" viewBox="0 0 234 132" fill="none" xmlns="http://www.w3.org/2000/svg">
<circle cx="66" cy="66" r="66" fill="#4B4B4B"/>
<circle cx="168" cy="66" r="66" fill="#69D097"/>
<path fill-rule="evenodd" clip-rule="evenodd" d="M59.0775 38.106C59.5145 38.2466 59.8953 38.5205 60.1654 38.8883C60.4356 39.256 60.5811 39.699 60.5812 40.1536V58.1019H75.8218C76.2234 58.1017 76.6173 58.2115 76.9598 58.419C77.3024 58.6265 77.5802 58.9237 77.7626 59.2777C77.945 59.6317 78.0248 60.0288 77.9933 60.4249C77.9617 60.821 77.82 61.2008 77.5838 61.5221L54.3602 93.1112C54.0902 93.4793 53.7093 93.7534 53.2721 93.8942C52.8349 94.035 52.3639 94.0353 51.9266 93.895C51.4892 93.7547 51.108 93.4811 50.8375 93.1133C50.567 92.7455 50.4212 92.3025 50.4209 91.8477V73.8993H35.1804C34.7782 73.8999 34.3838 73.7903 34.0407 73.5826C33.6977 73.375 33.4196 73.0774 33.2371 72.7229C33.0546 72.3684 32.9749 71.9708 33.0069 71.5742C33.0389 71.1777 33.1813 70.7976 33.4183 70.4762L56.6419 38.8871C56.9124 38.5191 57.2938 38.2453 57.7314 38.105C58.1689 37.9647 58.6402 37.965 59.0775 38.106Z" fill="white"/>
<path d="M195.247 54C194.474 54.0002 193.712 54.1867 193.029 54.5434C192.345 54.9001 191.76 55.4161 191.324 56.0467C190.889 56.6772 190.616 57.4032 190.529 58.1616C190.442 58.9199 190.544 59.6877 190.826 60.3983L180.832 70.2616C179.718 69.8288 178.479 69.8288 177.365 70.2616L170.22 63.2107C170.503 62.5 170.606 61.7319 170.519 60.9731C170.433 60.2143 170.16 59.4878 169.724 58.8569C169.288 58.2259 168.703 57.7096 168.019 57.3527C167.335 56.9959 166.573 56.8093 165.799 56.8093C165.026 56.8093 164.264 56.9959 163.58 57.3527C162.896 57.7096 162.31 58.2259 161.874 58.8569C161.439 59.4878 161.166 60.2143 161.079 60.9731C160.993 61.7319 161.096 62.5 161.379 63.2107L149.484 74.949C148.468 74.5557 147.346 74.5197 146.307 74.8468C145.267 75.174 144.373 75.8444 143.776 76.7454C143.178 77.6463 142.913 78.7229 143.025 79.7941C143.137 80.8652 143.62 81.8656 144.391 82.6271C145.163 83.3885 146.176 83.8646 147.262 83.9752C148.347 84.0858 149.438 83.8242 150.351 83.2344C151.264 82.6446 151.943 81.7626 152.275 80.7366C152.606 79.7107 152.57 78.6034 152.171 77.6009L164.066 65.8625C165.18 66.2954 166.419 66.2954 167.533 65.8625L174.678 72.9135C174.395 73.6242 174.292 74.3923 174.378 75.1511C174.465 75.9099 174.738 76.6364 175.174 77.2673C175.609 77.8983 176.195 78.4146 176.879 78.7715C177.563 79.1283 178.325 79.3148 179.098 79.3148C179.872 79.3148 180.634 79.1283 181.318 78.7715C182.002 78.4146 182.587 77.8983 183.023 77.2673C183.459 76.6364 183.732 75.9099 183.818 75.1511C183.905 74.3923 183.802 73.6242 183.519 72.9135L193.514 63.0501C194.164 63.3023 194.863 63.4097 195.56 63.3648C196.257 63.3198 196.936 63.1236 197.547 62.7901C198.159 62.4565 198.689 61.994 199.098 61.4353C199.508 60.8766 199.788 60.2357 199.917 59.5581C200.047 58.8805 200.024 58.183 199.849 57.5153C199.674 56.8476 199.353 56.2262 198.907 55.6954C198.46 55.1645 197.901 54.7374 197.269 54.4443C196.636 54.1513 195.946 53.9995 195.247 54Z" fill="white"/>
</svg>
