<svg width="25" height="21" viewBox="0 0 25 21" fill="none" xmlns="http://www.w3.org/2000/svg">
<path fill-rule="evenodd" clip-rule="evenodd" d="M14.7683 16.75L14.7609 19.2537C14.7597 19.8412 14.7585 20.135 14.5778 20.3175C14.3971 20.5 14.1082 20.5 13.528 20.5H9.82801C5.18151 20.5 2.85825 20.5 1.4139 19.035C0.418223 18.0275 0.109685 16.5962 0.0125759 14.2637C-0.00586263 13.8012 -0.0156965 13.5687 0.0691207 13.415C0.155167 13.2612 0.493207 13.0688 1.17174 12.6825C1.55396 12.4658 1.87233 12.1493 2.09397 11.7656C2.3156 11.3819 2.43246 10.945 2.43246 10.5C2.43246 10.055 2.3156 9.6181 2.09397 9.23441C1.87233 8.85072 1.55396 8.53418 1.17174 8.3175C0.493207 7.9325 0.153938 7.73875 0.0691207 7.585C-0.0156965 7.43125 -0.00586272 7.2 0.013805 6.73625C0.109685 4.40375 0.419453 2.97375 1.4139 1.965C2.85702 0.500001 5.18028 0.500001 9.82801 0.500001H14.1426C14.2233 0.499837 14.3033 0.51584 14.3779 0.547098C14.4526 0.578355 14.5204 0.624255 14.5776 0.682175C14.6348 0.740096 14.6802 0.808903 14.7112 0.884669C14.7423 0.960434 14.7583 1.04168 14.7585 1.12375L14.7683 4.25C14.7683 4.94 15.3202 5.5 16 5.5V8C15.3202 8 14.7683 8.56 14.7683 9.25V11.75C14.7683 12.44 15.3202 13 16 13V15.5C15.3202 15.5 14.7683 16.06 14.7683 16.75Z" fill="black"/>
<path d="M16 15.5173C16.7127 15.5173 17.2913 16.0788 17.2913 16.7707V19.2475C17.2913 19.8516 17.2913 20.1537 17.4911 20.3379C17.6896 20.5234 17.9937 20.5109 18.6033 20.4858C21.0042 20.3868 22.4786 20.0709 23.5186 19.0619C24.5612 18.0517 24.8847 16.6153 24.9865 14.2764C25.0058 13.8127 25.0161 13.5808 24.9272 13.4266C24.8383 13.2712 24.4826 13.0782 23.7712 12.6921C23.3705 12.4748 23.0367 12.1574 22.8043 11.7727C22.5719 11.388 22.4494 10.9499 22.4494 10.5037C22.4494 10.0575 22.5719 9.61935 22.8043 9.23461C23.0367 8.84988 23.3705 8.53247 23.7712 8.3152C24.4826 7.9279 24.8383 7.73487 24.9272 7.5807C25.0174 7.42528 25.0058 7.1934 24.9865 6.72964C24.8847 4.39077 24.5612 2.95561 23.5173 1.94411C22.3871 0.847377 20.7413 0.570373 17.9473 0.500182C17.8619 0.498175 17.7769 0.512806 17.6974 0.543213C17.6179 0.573619 17.5455 0.619187 17.4844 0.677234C17.4232 0.735281 17.3747 0.804634 17.3415 0.88121C17.3084 0.957787 17.2913 1.04004 17.2913 1.12313V4.2366C17.2913 4.92848 16.7127 5.49001 16 5.49001V7.99683C16.1695 7.9965 16.3373 8.02868 16.494 8.09152C16.6506 8.15437 16.793 8.24664 16.913 8.36306C17.0329 8.47948 17.1281 8.61777 17.193 8.77001C17.2579 8.92224 17.2913 9.08543 17.2913 9.25025V11.7571C17.2913 12.449 16.7127 13.0105 16 13.0105V15.5173Z" fill="black"/>
</svg>
